<svg width="256" height="256" viewBox="0 0 256 256" fill="none" xmlns="http://www.w3.org/2000/svg">
<path d="M181.92 153.004C179.919 164.184 174.541 174.483 166.51 182.514C158.479 190.545 148.18 195.923 137 197.924C136.669 197.975 136.335 198.001 136 198.004C134.491 198.01 133.036 197.448 131.924 196.429C130.811 195.41 130.123 194.009 129.997 192.506C129.871 191.002 130.316 189.507 131.243 188.317C132.17 187.127 133.512 186.33 135 186.084C152.38 183.164 167.13 168.404 170.08 151.004C170.345 149.434 171.223 148.034 172.521 147.111C173.164 146.654 173.89 146.328 174.658 146.152C175.427 145.976 176.223 145.953 177 146.084C177.777 146.215 178.521 146.499 179.189 146.917C179.857 147.336 180.436 147.883 180.893 148.525C181.35 149.168 181.676 149.894 181.852 150.662C182.028 151.431 182.051 152.227 181.92 153.004ZM214 144.004C214 166.813 204.939 188.687 188.811 204.815C172.683 220.943 150.809 230.004 128 230.004C105.191 230.004 83.3169 220.943 67.1888 204.815C51.0607 188.687 42 166.813 42 144.004C42 116.534 52.85 88.3941 74.25 60.3641C74.7639 59.6815 75.4176 59.1165 76.1675 58.7069C76.9174 58.2973 77.7461 58.0526 78.5981 57.9892C79.4502 57.9258 80.306 58.0451 81.1083 58.3391C81.9105 58.6331 82.6407 59.0951 83.25 59.6941L109.59 85.2541L132.68 21.9441C133.009 21.0407 133.551 20.2297 134.26 19.5795C134.968 18.9293 135.823 18.4589 136.751 18.2079C137.679 17.957 138.654 17.9328 139.594 18.1375C140.534 18.3422 141.41 18.7697 142.15 19.3841C163.72 37.3341 214 85.4041 214 144.004ZM202 144.004C202 95.6041 163.35 54.1641 140.93 34.2041L117.64 98.0641C117.297 99.0053 116.725 99.8457 115.974 100.509C115.223 101.172 114.318 101.636 113.342 101.86C112.366 102.084 111.349 102.06 110.384 101.789C109.42 101.519 108.538 101.012 107.82 100.314L79.82 73.0941C62.67 97.1341 54 121.004 54 144.004C54 163.63 61.7964 182.452 75.6741 196.33C89.5518 210.208 108.374 218.004 128 218.004C147.626 218.004 166.448 210.208 180.326 196.33C194.204 182.452 202 163.63 202 144.004Z" fill="#FF0000"/>
<path fill-rule="evenodd" clip-rule="evenodd" d="M181.92 153C179.919 164.18 174.541 174.479 166.51 182.51C158.479 190.541 148.18 195.919 137 197.92C136.669 197.971 136.335 197.997 136 198C134.491 198.006 133.036 197.443 131.924 196.424C130.811 195.406 130.123 194.005 129.997 192.502C129.871 190.998 130.316 189.503 131.243 188.313C132.17 187.123 133.512 186.325 135 186.08C152.38 183.16 167.13 168.4 170.08 151C170.345 149.43 171.223 148.03 172.521 147.107C173.164 146.65 173.89 146.324 174.658 146.148C175.427 145.972 176.223 145.949 177 146.08C177.777 146.211 178.521 146.494 179.189 146.913C179.857 147.332 180.436 147.878 180.893 148.521C181.35 149.164 181.676 149.89 181.852 150.658C182.028 151.427 182.051 152.223 181.92 153ZM214 144C214 166.809 204.939 188.683 188.811 204.811C172.683 220.939 150.809 230 128 230C105.191 230 83.3169 220.939 67.1888 204.811C51.0778 188.7 42.0192 166.855 42 144.073L42 143.92C42.021 116.476 52.8707 88.3629 74.25 60.36C74.7638 59.6774 75.4176 59.1124 76.1675 58.7028C76.9173 58.2932 77.746 58.0485 78.5981 57.9851C79.4502 57.9217 80.306 58.041 81.1082 58.335C81.9105 58.629 82.6407 59.091 83.25 59.69L109.59 85.25L132.68 21.94C133.009 21.0366 133.551 20.2256 134.26 19.5754C134.968 18.9252 135.823 18.4547 136.751 18.2038C137.191 18.0848 137.642 18.0168 138.095 18H138.539C138.892 18.0131 139.246 18.0575 139.594 18.1334C140.534 18.3381 141.41 18.7656 142.15 19.38C163.72 37.33 214 85.4 214 144ZM202 144C202 95.6 163.35 54.16 140.93 34.2L117.64 98.06C117.297 99.0012 116.725 99.8416 115.974 100.505C115.223 101.168 114.318 101.632 113.342 101.856C112.366 102.08 111.349 102.055 110.384 101.785C109.42 101.515 108.538 101.008 107.82 100.31L79.82 73.09C62.67 97.13 54 121 54 144C54 163.626 61.7964 182.448 75.6741 196.326C89.5518 210.204 108.374 218 128 218C147.626 218 166.448 210.204 180.326 196.326C194.204 182.448 202 163.626 202 144Z" fill="#D9D9D9"/>
</svg>
