<svg width="256" height="256" viewBox="0 0 256 256" fill="none" xmlns="http://www.w3.org/2000/svg">
<path d="M181.92 153C179.919 164.18 174.541 174.479 166.51 182.51C158.479 190.541 148.18 195.919 137 197.92C136.669 197.971 136.335 197.997 136 198C134.491 198.006 133.036 197.443 131.924 196.424C130.811 195.406 130.123 194.005 129.997 192.502C129.871 190.998 130.316 189.503 131.243 188.313C132.17 187.123 133.512 186.325 135 186.08C152.38 183.16 167.13 168.4 170.08 151C170.345 149.43 171.223 148.029 172.521 147.107C173.164 146.65 173.89 146.324 174.658 146.148C175.427 145.972 176.223 145.949 177 146.08C177.777 146.211 178.521 146.494 179.189 146.913C179.857 147.332 180.436 147.878 180.893 148.521C181.35 149.164 181.676 149.89 181.852 150.658C182.028 151.427 182.051 152.223 181.92 153ZM214 144C214 166.809 204.939 188.683 188.811 204.811C172.683 220.939 150.809 230 128 230C105.191 230 83.3169 220.939 67.1888 204.811C51.0607 188.683 42 166.809 42 144C42 116.53 52.85 88.39 74.25 60.36C74.7639 59.6774 75.4176 59.1124 76.1675 58.7028C76.9174 58.2932 77.7461 58.0485 78.5981 57.9851C79.4502 57.9217 80.306 58.041 81.1083 58.335C81.9105 58.629 82.6407 59.091 83.25 59.69L109.59 85.25L132.68 21.94C133.009 21.0366 133.551 20.2256 134.26 19.5754C134.968 18.9251 135.823 18.4547 136.751 18.2038C137.679 17.9528 138.654 17.9287 139.594 18.1334C140.534 18.3381 141.41 18.7656 142.15 19.38C163.72 37.33 214 85.4 214 144ZM202 144C202 95.6 163.35 54.16 140.93 34.2L117.64 98.06C117.297 99.0012 116.725 99.8416 115.974 100.505C115.223 101.168 114.318 101.632 113.342 101.856C112.366 102.08 111.349 102.055 110.384 101.785C109.42 101.515 108.538 101.008 107.82 100.31L79.82 73.09C62.67 97.13 54 121 54 144C54 163.626 61.7964 182.448 75.6741 196.326C89.5518 210.204 108.374 218 128 218C147.626 218 166.448 210.204 180.326 196.326C194.204 182.448 202 163.626 202 144Z" fill="#FF0000"/>
</svg>
