<svg width="275" height="272" viewBox="0 0 275 272" fill="none" xmlns="http://www.w3.org/2000/svg">
<path d="M50 27C50 39.0642 40.0133 49 27.5 49C14.9867 49 5 39.0642 5 27C5 14.9358 14.9867 5 27.5 5C40.0133 5 50 14.9358 50 27Z" stroke="#5E63B6" stroke-width="10"/>
<path d="M160 27C160 39.0642 150.013 49 137.5 49C124.987 49 115 39.0642 115 27C115 14.9358 124.987 5 137.5 5C150.013 5 160 14.9358 160 27Z" stroke="#5E63B6" stroke-width="10"/>
<path d="M270 27C270 39.0642 260.013 49 247.5 49C234.987 49 225 39.0642 225 27C225 14.9358 234.987 5 247.5 5C260.013 5 270 14.9358 270 27Z" stroke="#5E63B6" stroke-width="10"/>
<path d="M50 136C50 148.064 40.0133 158 27.5 158C14.9867 158 5 148.064 5 136C5 123.936 14.9867 114 27.5 114C40.0133 114 50 123.936 50 136Z" stroke="#5E63B6" stroke-width="10"/>
<path d="M160 136C160 148.064 150.013 158 137.5 158C124.987 158 115 148.064 115 136C115 123.936 124.987 114 137.5 114C150.013 114 160 123.936 160 136Z" stroke="#5E63B6" stroke-width="10"/>
<path d="M270 136C270 148.064 260.013 158 247.5 158C234.987 158 225 148.064 225 136C225 123.936 234.987 114 247.5 114C260.013 114 270 123.936 270 136Z" stroke="#5E63B6" stroke-width="10"/>
<path d="M160 245C160 257.064 150.013 267 137.5 267C124.987 267 115 257.064 115 245C115 232.936 124.987 223 137.5 223C150.013 223 160 232.936 160 245Z" stroke="#5E63B6" stroke-width="10"/>
<rect x="131" y="159" width="14" height="60" fill="#5E63B6"/>
<rect x="226.295" y="150.22" width="14" height="105.972" transform="rotate(45 226.295 150.22)" fill="#5E63B6"/>
<rect x="42" y="46.7782" width="14" height="105.972" transform="rotate(-45 42 46.7782)" fill="#5E63B6"/>
<rect x="21" y="52" width="12" height="60" fill="#5E63B6"/>
<rect x="20" y="52" width="14" height="60" fill="#5E63B6"/>
<rect x="163" y="33" width="12" height="60" transform="rotate(-90 163 33)" fill="#5E63B6"/>
<rect x="163" y="34" width="14" height="60" transform="rotate(-90 163 34)" fill="#5E63B6"/>
</svg>
